HIERARCHY
ROOT Hips
{
	OFFSET 0.000000 0.000000 0.000000
	CHANNELS 6 Xposition Yposition Zposition Zrotation Yrotation Xrotation 
	JOINT LHipJoint
	{
		OFFSET 0.000000 0.000000 0.000000
		CHANNELS 3 Zrotation Yrotation Xrotation
		JOINT LeftUpLeg
		{
			OFFSET 1.363060 -1.794630 0.839290
			CHANNELS 3 Zrotation Yrotation Xrotation
			JOINT LeftLeg
			{
				OFFSET 2.448110 -6.726130 0.000000
				CHANNELS 3 Zrotation Yrotation Xrotation
				JOINT LeftFoot
				{
					OFFSET 2.562200 -7.039590 0.000000
					CHANNELS 3 Zrotation Yrotation Xrotation
					JOINT LeftToeBase
					{
						OFFSET 0.157640 -0.433110 2.322550
						CHANNELS 3 Zrotation Yrotation Xrotation
						End Site
						{
							OFFSET 0.000000 0.000000 0.000000
						}
					}
				}
			}
		}
	}
	JOINT RHipJoint
	{
		OFFSET 0.000000 0.000000 0.000000
		CHANNELS 3 Zrotation Yrotation Xrotation
		JOINT RightUpLeg
		{
			OFFSET -1.305520 -1.794630 0.839290
			CHANNELS 3 Zrotation Yrotation Xrotation
			JOINT RightLeg
			{
				OFFSET -2.542530 -6.985550 0.000000
				CHANNELS 3 Zrotation Yrotation Xrotation
				JOINT RightFoot
				{
					OFFSET -2.568260 -7.056230 0.000000
					CHANNELS 3 Zrotation Yrotation Xrotation
					JOINT RightToeBase
					{
						OFFSET -0.164730 -0.452590 2.363150
						CHANNELS 3 Zrotation Yrotation Xrotation
						End Site
						{
							OFFSET 0.000000 0.000000 0.000000
						}
					}
				}
			}
		}
	}
	JOINT LowerBack
	{
		OFFSET 0.000000 0.000000 0.000000
		CHANNELS 3 Zrotation Yrotation Xrotation
		JOINT Spine
		{
			OFFSET 0.028270 2.035590 -0.193380
			CHANNELS 3 Zrotation Yrotation Xrotation
			JOINT Spine1
			{
				OFFSET 0.056720 2.048850 -0.042750
				CHANNELS 3 Zrotation Yrotation Xrotation
				JOINT Neck
				{
					OFFSET 0.000000 0.000000 0.000000
					CHANNELS 3 Zrotation Yrotation Xrotation
					JOINT Neck1
					{
						OFFSET -0.054170 1.746240 0.172020
						CHANNELS 3 Zrotation Yrotation Xrotation
						JOINT Head
						{
							OFFSET 0.104070 1.761360 -0.123970
							CHANNELS 3 Zrotation Yrotation Xrotation
							End Site
							{
								OFFSET 0.000000 0.000000 0.000000
							}
						}
					}
				}
				JOINT LeftShoulder
				{
					OFFSET 0.000000 0.000000 0.000000
					CHANNELS 3 Zrotation Yrotation Xrotation
					JOINT LeftArm
					{
						OFFSET 3.362410 1.200890 -0.311210
						CHANNELS 3 Zrotation Yrotation Xrotation
						JOINT LeftForeArm
						{
							OFFSET 4.983000 -0.000000 -0.000000
							CHANNELS 3 Zrotation Yrotation Xrotation
							JOINT LeftHand
							{
								OFFSET 3.483560 -0.000000 -0.000000
								CHANNELS 3 Zrotation Yrotation Xrotation
								JOINT LeftFingerBase
								{
									OFFSET 0.000000 0.000000 0.000000
									CHANNELS 3 Zrotation Yrotation Xrotation
									JOINT LeftHandIndex1
									{
										OFFSET 0.715260 -0.000000 -0.000000
										CHANNELS 3 Zrotation Yrotation Xrotation
										End Site
										{
											OFFSET 0.000000 0.000000 0.000000
										}
									}
								}
								JOINT LThumb
								{
									OFFSET 0.000000 0.000000 0.000000
									CHANNELS 3 Zrotation Yrotation Xrotation
									End Site
									{
										OFFSET 0.000000 0.000000 0.000000
									}
								}
							}
						}
					}
				}
				JOINT RightShoulder
				{
					OFFSET 0.000000 0.000000 0.000000
					CHANNELS 3 Zrotation Yrotation Xrotation
					JOINT RightArm
					{
						OFFSET -3.136600 1.374050 -0.404650
						CHANNELS 3 Zrotation Yrotation Xrotation
						JOINT RightForeArm
						{
							OFFSET -5.241900 -0.000000 -0.000000
							CHANNELS 3 Zrotation Yrotation Xrotation
							JOINT RightHand
							{
								OFFSET -3.444170 -0.000000 -0.000000
								CHANNELS 3 Zrotation Yrotation Xrotation
								JOINT RightFingerBase
								{
									OFFSET 0.000000 0.000000 0.000000
									CHANNELS 3 Zrotation Yrotation Xrotation
									JOINT RightHandIndex1
									{
										OFFSET -0.622530 -0.000000 -0.000000
										CHANNELS 3 Zrotation Yrotation Xrotation
										End Site
										{
											OFFSET 0.000000 0.000000 0.000000
										}
									}
								}
								JOINT RThumb
								{
									OFFSET 0.000000 0.000000 0.000000
									CHANNELS 3 Zrotation Yrotation Xrotation
									End Site
									{
										OFFSET 0.000000 0.000000 0.000000
									}
								}
							}
						}
					}
				}
			}
		}
	}
}
MOTION
Frames: 12
Frame Time: 0.008333
18.455556 15.060661 14.728378 -173.759982 7.196503 -170.323631 4.422352 4.118400 -4.423504 -13.463430 -2.695581 -8.893477 -9.875269 12.368484 63.056007 -43.095944 7.333971 35.609437 -19.121756 18.066753 24.704484 10.885953 -4.582467 -0.097731 15.056328 15.025847 -45.736188 -14.111759 -11.249014 54.414040 -11.784669 -4.301377 -18.209500 15.347796 -3.674068 -18.609447 -12.240769 -0.999931 14.268734 6.191347 0.470432 -6.925394 3.406637 -1.706285 10.115293 2.761295 2.113109 -17.370106 7.100104 1.044226 13.760197 -11.151780 9.714159 -4.436141 16.376448 4.822355 -1.477588 -81.568463 -22.335042 27.356921 54.382340 -73.672394 -15.004097 -24.815872 -35.985313 14.099239 -0.000000 0.000000 -0.000000 0.000000 0.000000 -0.000000 -0.000000 0.000000 -0.000000 -2.791928 0.013917 7.439416 67.995669 37.552539 -3.300545 12.500827 66.164939 26.347872 2.061645 13.915983 2.249713 0.000000 -0.000000 0.000000 -0.000000 0.000000 0.000000 0.000000 0.000000 -0.000000 
18.514264 15.038138 14.426051 -173.120111 7.067281 -170.677487 4.186415 3.889196 -4.040107 -11.702768 -3.507741 -11.917753 -8.948835 14.372063 66.697276 -41.621902 5.829509 34.992192 -17.211482 17.599978 20.959065 10.351376 -4.050199 -0.383395 16.724936 14.182083 -43.797190 -15.066134 -11.910403 54.813634 -12.387332 -4.149662 -19.370208 15.548489 -2.882355 -19.305890 -11.993379 -1.339802 14.210221 6.250377 0.507683 -6.667127 3.082935 -1.471207 10.295823 3.184454 2.423023 -17.024222 7.258717 1.129303 13.307005 -7.913656 9.426775 -3.367831 16.618242 5.518014 -1.692608 -81.107601 -20.376932 24.733129 49.795184 -73.559038 -12.651371 -27.110732 -35.272833 14.672360 -0.000000 -0.000000 -0.000000 0.000000 -0.000000 0.000000 -0.000000 -0.000000 -0.000000 -2.392199 1.045819 7.987853 67.314044 40.268498 -4.196920 12.431932 65.503958 27.034463 2.312661 14.363433 2.357832 0.000000 -0.000000 0.000000 0.000000 0.000000 0.000000 0.000000 0.000000 -0.000000 
18.579880 15.046246 14.121486 -173.108188 7.037518 -170.681005 4.221000 3.792567 -3.757030 -10.903627 -4.342408 -15.192278 -8.071161 16.118903 69.479282 -40.660462 4.748476 33.859785 -14.624678 16.765698 16.177607 10.225921 -3.670203 -0.562197 17.703146 12.726618 -42.597325 -16.334028 -12.050999 54.900151 -12.826035 -2.683218 -20.879840 15.731057 -3.269146 -19.312371 -12.170742 -1.688745 14.020402 6.356337 0.477283 -6.535741 3.262460 -1.541461 10.648605 3.011705 2.256088 -17.067880 7.313109 1.047153 12.949212 -10.867052 9.743396 -3.030605 16.104326 6.583859 -1.978372 -81.044331 -18.413186 23.139174 47.430625 -73.444841 -10.607965 -24.109352 -35.215427 13.529597 -0.000000 0.000000 -0.000000 0.000000 0.000000 0.000000 0.000000 0.000000 -0.000000 -2.778093 1.823035 8.662551 66.870163 43.592624 -4.582466 12.586303 65.693351 27.225799 2.906234 14.636068 2.489461 0.000000 -0.000000 0.000000 -0.000000 0.000000 -0.000000 -0.000000 0.000000 0.000000 
18.644595 15.065465 13.802508 -173.280371 6.906692 -170.589725 4.098574 3.817626 -3.402518 -10.160152 -5.187797 -18.664811 -8.189887 17.190913 72.110965 -38.205982 2.948906 31.929461 -13.651177 17.826464 13.604730 10.245469 -3.674249 -0.435807 18.104009 11.633705 -41.758397 -17.389362 -12.291265 54.863218 -12.931581 -1.114224 -22.486712 16.747440 -3.567994 -20.394485 -12.388882 -1.933801 13.659318 6.495388 0.495100 -6.425820 2.815861 -1.309722 11.412584 3.384165 2.118128 -17.539274 7.345052 0.852954 12.598991 -12.255904 9.284973 -2.749835 15.980111 7.368391 -2.369184 -80.989449 -16.813651 21.803130 45.486572 -73.331357 -8.990468 -21.434276 -35.147538 12.523660 0.000000 0.000000 0.000000 0.000000 0.000000 0.000000 0.000000 0.000000 0.000000 -2.342995 1.758371 9.691988 66.088398 47.697568 -4.899665 12.545062 66.042194 27.389222 2.185608 15.157275 2.468112 0.000000 -0.000000 0.000000 0.000000 0.000000 -0.000000 -0.000000 -0.000000 -0.000000 
18.713514 15.056607 13.501291 -173.370966 6.870617 -170.566054 4.439124 3.708241 -3.261043 -9.837556 -5.601734 -21.920073 -8.021166 18.240896 74.749137 -35.983489 1.587053 30.135758 -12.272518 12.102773 14.213847 9.673184 -3.161634 -0.709042 19.277661 10.153244 -40.448734 -18.364177 -12.417144 54.892890 -13.585766 -0.058469 -24.152882 17.100919 -4.753829 -20.164864 -12.408754 -2.322709 13.418970 6.365042 0.478144 -6.233995 2.062196 -1.011041 11.391925 4.027762 2.144110 -17.276014 7.436291 0.757727 12.172643 -12.168998 9.268301 -2.484536 16.731680 8.061577 -2.498492 -81.008480 -14.716273 20.264121 43.476757 -73.222116 -6.804124 -19.450392 -36.389673 12.235445 -0.000000 0.000000 -0.000000 0.000000 -0.000000 -0.000000 -0.000000 0.000000 -0.000000 -2.012911 2.498651 10.280422 65.589562 50.675918 -5.483008 12.719703 66.230982 27.151755 2.860046 14.340396 2.432982 0.000000 -0.000000 0.000000 -0.000000 -0.000000 0.000000 0.000000 0.000000 -0.000000 
18.776877 15.084084 13.194790 -173.570946 6.792852 -170.476039 3.989871 3.375533 -3.057594 -8.743492 -5.711387 -25.327967 -7.909792 19.017931 77.033653 -33.491541 0.394948 28.672737 -10.978177 14.493398 10.469762 9.955014 -2.499905 -0.948778 19.028812 8.402229 -39.319118 -18.351881 -12.430752 54.804672 -14.548693 0.220151 -25.654660 18.541102 -6.018872 -21.215859 -12.740245 -2.666220 13.258029 6.552221 0.558230 -6.192305 2.332664 -0.905504 11.221412 3.693879 2.151822 -16.903720 7.482095 0.802853 11.834234 -10.310780 8.764241 -2.499878 15.862418 8.414110 -2.684957 -80.750477 -12.586460 19.640603 43.788305 -72.319161 -7.956530 -19.601532 -35.952514 12.139765 -0.000000 0.000000 -0.000000 -0.000000 0.000000 -0.000000 -0.000000 0.000000 -0.000000 -2.092104 3.269119 11.120563 64.027477 53.668392 -6.468436 12.332821 66.299394 27.573831 -0.168075 14.358706 2.000423 0.000000 -0.000000 0.000000 -0.000000 0.000000 -0.000000 0.000000 -0.000000 -0.000000 
18.835736 15.103604 12.882973 -173.877674 6.791172 -170.302473 4.078741 3.354386 -2.860856 -8.541161 -6.035740 -28.377328 -7.566045 19.684602 78.237400 -30.184742 -0.477799 26.355885 -10.042032 11.569353 10.431133 9.805442 -2.176764 -0.880360 18.807818 7.324488 -38.327514 -17.832420 -12.618621 54.552938 -15.311225 -0.059662 -27.162500 18.555600 -3.011030 -22.906219 -12.817623 -3.006947 12.975172 6.548431 0.599426 -6.220604 1.498238 -0.616986 10.829342 4.165409 2.131143 -16.541135 7.438105 0.700837 11.876429 -9.747888 8.576589 -2.222576 16.109890 8.840003 -3.013373 -80.788883 -10.150111 19.471814 46.233671 -71.931302 -10.059518 -17.223426 -34.772910 10.888711 -0.000000 -0.000000 0.000000 -0.000000 0.000000 0.000000 -0.000000 -0.000000 0.000000 -1.700700 3.918907 11.792316 63.603097 55.862100 -6.645218 12.361717 67.081117 27.865585 1.588104 14.777127 2.318162 0.000000 -0.000000 0.000000 -0.000000 -0.000000 0.000000 0.000000 0.000000 0.000000 
18.900300 15.124174 12.578544 -174.372514 6.822029 -170.209401 4.124419 3.369695 -2.700612 -8.684675 -6.023747 -31.311473 -6.097256 20.136882 79.132323 -27.613440 -0.751364 24.743498 -9.330169 13.186803 8.212867 9.744261 -1.753351 -0.988360 17.984614 6.346883 -36.979061 -16.932413 -13.136995 54.208853 -16.316685 -0.781825 -28.639280 18.300181 -1.425064 -23.521413 -13.115724 -3.386306 12.865259 6.499888 0.783911 -6.306749 0.829071 -0.237835 10.539334 4.469886 2.046878 -16.421377 7.368073 0.570556 12.006068 -9.344649 8.218644 -1.926725 16.217392 9.315375 -3.169431 -80.806274 -8.156835 18.681744 47.654359 -72.246688 -11.867114 -17.574577 -33.908929 10.732314 -0.000000 0.000000 -0.000000 0.000000 -0.000000 0.000000 -0.000000 0.000000 -0.000000 -1.499245 4.261332 12.491906 63.274534 58.198861 -6.727594 12.373370 68.008935 27.369345 1.091932 13.847322 2.103573 0.000000 -0.000000 0.000000 0.000000 -0.000000 0.000000 -0.000000 0.000000 0.000000 
18.951201 15.155706 12.259249 -174.796058 6.795114 -170.098675 3.799725 3.442884 -2.456284 -8.413265 -6.173021 -34.246281 -5.556908 20.391841 79.797310 -24.291378 -0.459258 22.737582 -7.690344 11.230348 6.443069 9.917272 -1.636825 -0.886875 17.298456 4.984102 -35.955222 -16.092603 -13.089643 53.682103 -17.082345 -1.085455 -29.907678 18.830533 -0.515701 -24.703768 -13.196877 -3.596481 12.654499 6.509432 1.138756 -6.422546 -0.893869 0.861007 10.673460 5.737594 1.851160 -16.784708 7.293392 0.165707 12.138544 -9.298924 7.517894 -1.411445 16.938464 9.247557 -3.342065 -80.595764 -6.919873 17.632827 47.858840 -72.784596 -11.074381 -18.930275 -34.909111 11.538562 0.000000 0.000000 0.000000 -0.000000 -0.000000 -0.000000 0.000000 0.000000 0.000000 0.119715 3.733538 12.946272 62.234451 60.597445 -7.247872 12.362284 68.790528 27.516020 1.101042 13.711965 2.084288 0.000000 -0.000000 0.000000 -0.000000 0.000000 0.000000 -0.000000 0.000000 -0.000000 
19.000601 15.187387 11.945375 -175.249169 6.913135 -170.050451 3.359725 3.511965 -2.258547 -8.259979 -5.938047 -37.109446 -4.169910 20.471944 80.381022 -21.835441 0.161724 21.605976 -4.817886 11.696078 1.182373 10.174209 -1.239769 -0.959553 16.386298 3.349775 -34.677796 -15.543736 -13.359311 52.971185 -17.315999 -0.677561 -31.100453 19.455847 -1.152131 -25.071519 -13.365537 -4.073327 12.556264 6.577670 1.183409 -6.526483 -1.622919 1.033057 9.484470 5.953610 1.775369 -15.736558 7.187185 0.053434 12.395742 -8.082994 6.959866 -1.425708 16.713331 9.736080 -3.099243 -80.344986 -4.376480 17.115110 49.965583 -72.737591 -13.951457 -22.510276 -33.844025 12.427584 -0.000000 0.000000 0.000000 0.000000 -0.000000 -0.000000 -0.000000 0.000000 0.000000 0.516649 5.419218 13.048906 61.399310 61.280521 -7.546103 11.756139 69.425823 27.725216 1.705565 14.291640 2.259007 0.000000 -0.000000 0.000000 -0.000000 0.000000 0.000000 -0.000000 0.000000 -0.000000 
19.051351 15.214114 11.618078 -175.668315 6.769543 -170.279058 3.605086 3.722041 -1.974986 -8.938113 -6.120968 -39.221903 -3.531216 20.321394 80.043111 -20.204058 0.460307 19.593322 -1.211061 9.889422 -3.666138 9.584702 -0.902844 -1.223211 16.421715 1.644418 -32.499630 -14.392663 -13.292610 51.912595 -17.728788 -0.730104 -32.115694 19.525550 -0.208512 -25.722383 -13.333394 -4.349711 12.438230 6.398207 1.473384 -6.515980 -2.421636 1.532254 8.976677 6.296426 1.665976 -15.419183 7.229863 -0.120874 12.549872 -7.736275 6.712726 -0.529580 17.021130 9.954972 -3.140387 -80.454026 -2.712336 16.785925 51.394974 -73.085060 -14.727445 -23.581624 -34.551200 13.078355 0.000000 0.000000 0.000000 -0.000000 -0.000000 -0.000000 0.000000 0.000000 0.000000 0.679578 5.926238 13.082850 61.504447 61.745601 -7.351125 11.384950 70.359291 28.171919 0.411651 14.717013 2.135853 0.000000 -0.000000 0.000000 0.000000 0.000000 -0.000000 -0.000000 0.000000 0.000000 
19.096096 15.272372 11.289580 -176.202971 6.394176 -170.451444 3.440297 3.568995 -1.792622 -9.385836 -6.067978 -41.097587 -3.435574 19.889641 79.077613 -17.089771 0.266963 17.685188 -2.243428 9.670539 -1.845037 9.579465 -0.106353 -1.645895 15.359647 -0.856119 -30.203723 -13.301487 -13.817641 50.284165 -17.383257 0.506936 -32.839321 19.976928 -0.724487 -25.947929 -13.513627 -4.519888 12.474431 6.442839 1.991354 -6.672726 -2.376077 2.103977 8.369906 5.829105 1.273383 -15.133245 7.261446 -0.411998 12.780538 -7.352062 5.555386 -0.742790 16.152140 9.447679 -3.469979 -80.409113 -1.010927 17.493331 54.872034 -72.667380 -17.025065 -22.144011 -34.877773 12.681810 0.000000 -0.000000 -0.000000 -0.000000 -0.000000 -0.000000 0.000000 -0.000000 -0.000000 0.381244 6.053285 12.702016 61.505446 61.347056 -7.143458 11.163041 71.295754 28.074824 0.740005 14.450697 2.144414 0.000000 -0.000000 0.000000 0.000000 0.000000 0.000000 -0.000000 0.000000 0.000000 
